# AST/ASF file generated using VICON BodyLanguage
# -----------------------------------------------
:version 1.10
:name VICON
:units
  mass 1.0
  length 0.45
  angle deg
:documentation
   .ast/.asf automatically generated from VICON data using
   VICON BodyBuilder and BodyLanguage model FoxedUp or BRILLIANT.MOD
:root
   order TX TY TZ RX RY RZ
   axis XYZ
   position 0 0 0  
   orientation 0 -0 0 
:bonedata
  begin
     id 1 
     name lhipjoint
     direction 0.515797 -0.759363 0.396637 
     length 2.47888 
     axis 0 -0 0  XYZ
  end
  begin
     id 2 
     name lfemur
     direction 0.34202 -0.939693 0  
     length 6.81885  
     axis 0 -0 20  XYZ
    dof rx ry rz
    limits (-160.0 20.0)
           (-70.0 70.0)
           (-60.0 70.0)
  end
  begin
     id 3 
     name ltibia
     direction 0.342037 -0.939687 0   
     length 7.89258   
     axis 0 -0 20   XYZ
    dof rx
    limits (-10.0 170.0)
  end
  begin
     id 4 
     name lfoot
     direction 0.173497 -0.476678 0.861787   
     length 2.51543   
     axis -90 -1.13533e-015 20   XYZ
    dof rx rz
    limits (-45.0 90.0)
           (-70.0 20.0)
  end
  begin
     id 5 
     name ltoes
     direction 1.53564e-011 -4.21897e-011 1   
     length 1.21388   
     axis -90 -1.13533e-015 20   XYZ
    dof rx
    limits (-90.0 20.0)
  end
  begin
     id 6 
     name rhipjoint
     direction -0.489454 -0.772941 0.403729   
     length 2.43534  
     axis 0 -0 0  XYZ 
  end
  begin
     id 7 
     name rfemur
     direction -0.34202 -0.939693 0   
     length 7.10357   
     axis 0 -0 -20   XYZ
    dof rx ry rz
    limits (-160.0 20.0)
           (-70.0 70.0)
           (-70.0 60.0)
  end
  begin
     id 8 
     name rtibia
     direction -0.34202 -0.939693 0   
     length 9.16127   
     axis 0 -0 -20   XYZ
    dof rx
    limits (-10.0 170.0)
 end
 begin
     id 9 
     name rfoot
     direction -0.270974 -0.748671 0.605033   
     length 1.74894  
     axis -90 1.13533e-015 -20   XYZ
    dof rx rz
    limits (-45.0 90.0)
           (-20.0 70.0)
  end
  begin
     id 10 
     name rtoes
     direction -1.53557e-011 -4.21759e-011 1   
     length 0.787585   
     axis -90 1.13533e-015 -20   XYZ
    dof rx
    limits (-90.0 20.0)
  end
  begin
     id 11 
     name lowerback
     direction -0.0140249 0.999561 0.0260968   
     length 2.16963   
     axis 0 -0 0   XYZ
    dof rx ry rz
    limits (-20.0 45.0)
           (-30.0 30.0)
           (-30.0 30.0)
  end
  begin
     id 12 
     name upperback
     direction 0.00860018 0.999959 -0.002711   
     length 2.1726   
     axis 0 -0 0   XYZ
    dof rx ry rz
    limits (-20.0 45.0)
           (-30.0 30.0)
           (-30.0 30.0)
  end
  begin
     id 13 
     name thorax
     direction 0.015211 0.999782 -0.0143191   
     length 2.17061   
     axis 0 -0 0   XYZ
    dof rx ry rz
    limits (-20.0 45.0)
           (-30.0 30.0)
           (-30.0 30.0)
  end
  begin
     id 14 
     name lowerneck
     direction -0.0140143 0.999447 0.030145   
     length 2.26749   
     axis 0 -0 0   XYZ
    dof rx ry rz
    limits (-20.0 45.0)
           (-30.0 30.0)
           (-30.0 30.0)
  end
  begin
     id 15 
     name upperneck
     direction 0.118062 0.961438 -0.248392   
     length 2.22728   
     axis 0 -0 0   XYZ
    dof rx ry rz
    limits (-20.0 45.0)
           (-30.0 30.0)
           (-30.0 30.0)
  end
  begin
     id 16
     name head
     direction 0.0431885 0.9954 -0.085514  
     length 2.28786  
     axis 0 -0 0   XYZ
    dof rx ry rz
    limits (-20.0 45.0)
           (-30.0 30.0)
           (-30.0 30.0)
  end
  begin
     id 17 
     name lclavicle
     direction 0.912126 0.409548 0.0172323  
     length 4.31571  
     axis 0 -0 0   XYZ
    dof ry rz
    limits (-20.0 10.0)
           (0.0 20.0)
  end
  begin
     id 18 
     name lhumerus
     direction 1 -4.48977e-011 1.93091e-027   
     length 5.13658   
     axis 180 -30 -90   XYZ
    dof rx ry rz
    limits (-60.0 90.0)
           (-90.0 90.0)
           (-90.0 90.0)
  end
  begin
     id 19
     name lradius
     direction 1 -4.48916e-011 6.84018e-027   
     length 3.22473   
     axis 180 -30 -90   XYZ
    dof rx
    limits (-10.0 170.0)
  end
  begin
     id 20
     name lwrist
     direction 1 -4.48987e-011 7.01981e-027   
     length 1.61236   
     axis -4.37994e-015 90 90   XYZ
    dof ry
    limits (-180.0 0.0)
 end
  begin
     id 21 
     name lhand
     direction 1 -4.49037e-011 1.40335e-026   
     length 0.936406   
     axis -8.96029e-015 90 90   XYZ
    dof rx rz
    limits (-90.0 90.0)
           (-45.0 45.0)
  end
  begin
     id 22 
     name lfingers
     direction 1 -4.48886e-011 2.8104e-026   
     length 0.754955   
     axis -1.79203e-014 90 90   XYZ
    dof rx
    limits (0.0 90.0)
  end
  begin
     id 23
     name lthumb
     direction 0.707107 -6.34937e-011 0.707107   
     length 1.08397   
     axis -90 45 -4.48555e-014   XYZ
    dof rx rz
    limits (-45.0 45.0)
           (-45.0 45.0)
  end
  begin
     id 24 
     name rclavicle
     direction -0.947962 0.317997 0.0156638   
     length 4.86918  
     axis 0 -0 0   XYZ 
    dof ry rz
    limits (-10.0 20.0)
           (-20.0 0.0)
  end
  begin
     id 25 
     name rhumerus
     direction -1 -4.48951e-011 2.80534e-018  
     length 5.60911   
     axis 180 30 90   XYZ
    dof rx ry rz
    limits (-90.0 60.0)
           (-90.0 90.0)
           (-90.0 90.0)
  end
  begin
     id 26 
     name rradius
     direction -1 -4.4898e-011 2.11315e-027   
     length 3.38704   
     axis 180 30 90   XYZ
    dof rx
    limits (-10.0 170.0)
  end
  begin
     id 27 
     name rwrist
     direction -1 -4.48933e-011 7.02314e-027   
     length 1.69352   
     axis -4.37994e-015 -90 -90   XYZ
    dof ry
    limits (-180.0 0.0)
  end
  begin
     id 28
     name rhand
     direction -1 -4.48937e-011 1.40458e-026   
     length 0.755878   
     axis -8.96029e-015 -90 -90   XYZ
    dof rx rz
    limits (-90.0 90.0)
           (-45.0 45.0)
  end
  begin
     id 29
     name rfingers
     direction -1 -4.4901e-011 2.80737e-026   
     length 0.609409   
     axis -1.79203e-014 -90 -90   XYZ
    dof rx
    limits (0.0 90.0)
  end
  begin
     id 30
     name rthumb
     direction -0.707107 -6.34968e-011 0.707107   
     length 0.874992   
     axis -90 -45 4.48555e-014   XYZ
    dof rx rz
    limits (-45.0 45.0)
           (-45.0 45.0)
  end
:hierarchy
  begin
    root lhipjoint rhipjoint lowerback
    lhipjoint lfemur
    lfemur ltibia
    ltibia lfoot
    lfoot ltoes
    rhipjoint rfemur
    rfemur rtibia
    rtibia rfoot
    rfoot rtoes
    lowerback upperback
    upperback thorax
    thorax lowerneck lclavicle rclavicle
    lowerneck upperneck
    upperneck head
    lclavicle lhumerus
    lhumerus lradius
    lradius lwrist
    lwrist lhand lthumb
    lhand lfingers
    rclavicle rhumerus
    rhumerus rradius
    rradius rwrist
    rwrist rhand rthumb
    rhand rfingers
  end

#!OML:ASF C:\ViconDB\ViconDB\414\Spring2016\041811\Spring2016.ASF
:FULLY-SPECIFIED
:DEGREES
109
root 6.57636 17.4931 6.64324 -172.544 3.4354 -179.962
lowerback 6.69587 -2.29561 -2.55833
upperback -0.0730712 -3.13969 2.15712
thorax -3.56881 -1.48222 3.97008
lowerneck -16.5136 -4.10966 -13.8583
upperneck 16.1608 -5.12138 16.8119
head 8.57612 -1.5129 7.54138
rclavicle -2.39536e-014 -1.70955e-014
rhumerus -75.3857 -5.5308 -84.845
rradius 91.9312
rwrist 4.58098
rhand -31.3928 -11.7517
rfingers 7.12502
rthumb -4.66243 -41.6803
lclavicle -2.39536e-014 -1.70955e-014
lhumerus -51.7317 -24.4573 101.836
lradius 100.196
lwrist -17.3296
lhand -34.2361 8.23457
lfingers 7.12502
lthumb -7.40744 38.0849
rfemur -38.4352 -13.6412 28.9604
rtibia 53.1912
rfoot -159.408 13.6583
rtoes -13.7625
lfemur 4.52668 -1.65791 -24.4898
ltibia 60.1246
lfoot 23.2433 5.51116
ltoes -1.17934
110
root 6.57321 17.4284 6.16632 -173.29 3.78802 -179.447
lowerback 7.17416 -1.91591 -2.15958
upperback 0.0331913 -2.58137 2.40723
thorax -3.7804 -1.19895 3.97444
lowerneck -16.0217 -4.13244 -13.7455
upperneck 16.0653 -5.18803 16.6348
head 8.45646 -1.57205 7.43893
rclavicle -4.47266e-016 -1.70955e-014
rhumerus -73.1369 -6.07242 -85.2732
rradius 92.1611
rwrist 5.19219
rhand -31.0294 -11.7572
rfingers 7.12502
rthumb -4.31157 -41.6933
lclavicle -4.47266e-016 -1.70955e-014
lhumerus -53.1946 -22.7226 102.598
lradius 95.6568
lwrist -17.8323
lhand -34.2095 8.9969
lfingers 7.12502
lthumb -7.38177 38.8481
rfemur -35.6768 -13.9719 28.9084
rtibia 53.2754
rfoot -160.734 15.2894
rtoes -14.5269
lfemur 2.17773 -0.0586224 -22.7948
ltibia 65.5833
lfoot 22.7814 3.47566
ltoes -1.19027
111
root 6.57467 17.3626 5.69441 -173.964 4.22368 -178.783
lowerback 7.54681 -1.45731 -1.89929
upperback 0.305065 -1.9004 2.8934
thorax -3.75511 -0.850717 4.27526
lowerneck -15.8779 -4.24171 -14.024
upperneck 15.9093 -5.29035 16.6955
head 8.40579 -1.64236 7.49021
rclavicle 2.0276e-014 -1.86858e-014
rhumerus -70.3618 -6.25997 -85.7152
rradius 92.3875
rwrist 5.44052
rhand -31.2931 -11.7931
rfingers 7.12502
rthumb -4.56619 -41.7239
lclavicle 2.0276e-014 -1.86858e-014
lhumerus -54.015 -20.7939 103.051
lradius 90.7618
lwrist -18.85
lhand -33.8788 9.20172
lfingers 7.12502
lthumb -7.06261 39.0639
rfemur -33.0492 -14.3476 29.1707
rtibia 53.2761
rfoot -161.627 16.4257
rtoes -14.3942
lfemur -0.386238 1.56638 -20.8801
ltibia 70.9711
lfoot 21.6788 1.08812
ltoes -0.969667
112
root 6.58075 17.3042 5.23441 -174.684 4.72906 -177.895
lowerback 8.31846 -0.967048 -1.04916
upperback 0.394978 -1.14111 3.00979
thorax -4.17457 -0.470567 3.85471
lowerneck -15.2561 -4.23761 -13.4855
upperneck 15.6119 -5.4241 16.6729
head 8.20195 -1.69015 7.35437
rclavicle 2.52457e-014 -2.78299e-015
rhumerus -67.7031 -6.73263 -86.8357
rradius 92.5565
rwrist 5.78638
rhand -31.9658 -11.8032
rfingers 7.12502
rthumb -5.21572 -41.719
lclavicle 2.52457e-014 -2.78299e-015
lhumerus -55.308 -19.3765 102.908
lradius 85.7447
lwrist -19.4745
lhand -34.6206 9.81334
lfingers 7.12502
lthumb -7.77864 39.6503
rfemur -30.2352 -14.3136 29.7024
rtibia 53.157
rfoot -163.059 16.8151
rtoes -13.7056
lfemur -3.04136 3.23932 -18.5943
ltibia 76.2031
lfoot 19.9032 -1.58501
ltoes -1.39522
113
root 6.5865 17.2441 4.78811 -175.196 5.28052 -176.613
lowerback 9.03551 -0.537518 0.0795917
upperback 0.565967 -0.393639 3.31597
thorax -4.46005 -0.097704 3.45672
lowerneck -15.3165 -4.23979 -13.0374
upperneck 15.6679 -5.50936 16.6627
head 8.23389 -1.69044 7.26387
rclavicle 7.95139e-016 -2.94201e-014
rhumerus -64.5319 -6.63331 -88.1142
rradius 92.9239
rwrist 5.81536
rhand -32.0465 -12.0779
rfingers 7.12502
rthumb -5.29367 -41.9918
lclavicle 7.95139e-016 -2.94201e-014
lhumerus -56.2143 -17.9583 102.388
lradius 80.6093
lwrist -20.054
lhand -35.2311 10.2413
lfingers 7.12502
lthumb -8.36778 40.0556
rfemur -27.5201 -13.7915 30.676
rtibia 52.8915
rfoot -164.769 17.0145
rtoes -13.1377
lfemur -6.05655 4.89937 -15.7832
ltibia 81.329
lfoot 17.6658 -3.91135
ltoes -1.3239
114
root 6.57961 17.1813 4.35897 -175.635 5.8108 -175.373
lowerback 9.69361 -0.146571 0.891644
upperback 0.922923 0.328613 3.95808
thorax -4.50016 0.28251 3.57858
lowerneck -15.9001 -4.31538 -12.9722
upperneck 15.7572 -5.5421 16.337
head 8.36242 -1.71786 7.13262
rclavicle 4.96962e-016 -2.70347e-014
rhumerus -60.8483 -5.728 -89.0941
rradius 93.2635
rwrist 6.49897
rhand -32.8384 -12.4684
rfingers 7.12502
rthumb -6.0582 -42.3618
lclavicle 4.96962e-016 -2.70347e-014
lhumerus -56.9675 -16.3073 102.223
lradius 75.8475
lwrist -20.8976
lhand -35.9484 11.1836
lfingers 7.12502
lthumb -9.05997 40.9691
rfemur -24.8237 -13.5581 31.4488
rtibia 52.4841
rfoot -165.682 17.6265
rtoes -12.4047
lfemur -9.37206 6.33905 -13.2041
ltibia 86.2024
lfoot 15.3056 -5.55441
ltoes -1.70786
115
root 6.56964 17.1056 3.93416 -176.16 6.5402 -174.113
lowerback 10.3957 0.233636 1.84346
upperback 1.21404 1.05296 4.39097
thorax -4.623 0.658343 3.39271
lowerneck -15.9549 -4.23511 -12.5696
upperneck 15.6651 -5.44782 15.9432
head 8.30129 -1.68835 6.9243
rclavicle -2.03754e-014 -7.95139e-015
rhumerus -57.2766 -4.71937 -90.3458
rradius 93.912
rwrist 6.72855
rhand -33.2065 -12.7138
rfingers 7.12502
rthumb -6.41353 -42.5967
lclavicle -2.03754e-014 -7.95139e-015
lhumerus -58.6832 -15.2625 102.025
lradius 72.2762
lwrist -19.905
lhand -36.5525 12.5885
lfingers 7.12502
lthumb -9.64292 42.3478
rfemur -21.9283 -13.4288 32.0084
rtibia 51.961
rfoot -166.298 18.5728
rtoes -11.5841
lfemur -12.6391 7.80705 -10.6118
ltibia 90.697
lfoot 13.3754 -6.44835
ltoes -1.87884
116
root 6.55741 17.0427 3.51097 -176.46 7.25017 -173.196
lowerback 10.8989 0.505602 2.51278
upperback 1.50831 1.58131 4.68498
thorax -4.61332 0.935985 3.24221
lowerneck -16.3979 -4.09146 -12.1122
upperneck 15.7023 -5.24723 15.4709
head 8.3337 -1.59978 6.69865
rclavicle -2.78299e-015 -5.00937e-014
rhumerus -53.6736 -3.14983 -91.7514
rradius 95.0235
rwrist 6.76879
rhand -33.5822 -12.8479
rfingers 7.12502
rthumb -6.77624 -42.7194
lclavicle -2.78299e-015 -5.00937e-014
lhumerus -60.6746 -14.4696 101.804
lradius 69.7604
lwrist -17.4485
lhand -36.92 12.7639
lfingers 7.12502
lthumb -9.99748 42.5065
rfemur -19.1903 -13.3286 32.1058
rtibia 51.2589
rfoot -166.526 19.8039
rtoes -10.8526
lfemur -16.2816 9.18778 -8.65098
ltibia 94.5569
lfoot 11.9506 -6.49396
ltoes -2.7273
117
root 6.55711 16.9913 3.09715 -176.807 8.23398 -172.568
lowerback 11.5449 0.862037 2.63902
upperback 1.7934 2.16049 4.95676
thorax -4.70402 1.24443 3.36148
lowerneck -16.7836 -3.92255 -11.9355
upperneck 15.6905 -4.98275 15.2047
head 8.3453 -1.48268 6.60474
rclavicle -7.05686e-015 6.36111e-015
rhumerus -50.1176 -1.60353 -93.084
rradius 96.4619
rwrist 6.92122
rhand -33.5128 -12.7096
rfingers 7.12502
rthumb -6.70923 -42.5833
lclavicle -7.05686e-015 6.36111e-015
lhumerus -63.1243 -13.8373 101.646
lradius 68.4721
lwrist -13.9762
lhand -35.9227 12.3858
lfingers 7.12502
lthumb -9.03524 42.1723
rfemur -16.415 -12.4595 31.9767
rtibia 50.4085
rfoot -166.79 20.685
rtoes -10.4385
lfemur -19.8474 10.5922 -7.11147
ltibia 97.7343
lfoot 10.6434 -6.02947
ltoes -2.74053
